<svg height="512" viewBox="0 0 128 128" width="512" xmlns="http://www.w3.org/2000/svg"><g id="Circle_Grid" data-name="Circle Grid"><circle cx="64" cy="64" fill="#ef5261" r="64"/></g><g id="icon"><path d="m97.962 101h-67.924a2.042 2.042 0 0 1 -2.01-2.387l2.04-11.753.877-5.1 7.039-40.614a2.045 2.045 0 0 1 2.01-1.693h48.01a2.045 2.045 0 0 1 2.01 1.693l7.039 40.614.877 5.1 2.04 11.753a2.042 2.042 0 0 1 -2.008 2.387z" fill="#f6c863"/><path d="m83.361 49.141a4.058 4.058 0 1 1 -4.061-4.057 4.062 4.062 0 0 1 4.061 4.057z" fill="#eab54e"/><path d="m52.755 49.141a4.058 4.058 0 1 1 -4.055-4.057 4.062 4.062 0 0 1 4.055 4.057z" fill="#eab54e"/><path d="m79.3 50.672a1.53 1.53 0 0 1 -1.53-1.53v-13.309a13.773 13.773 0 0 0 -27.545 0v13.308a1.53 1.53 0 0 1 -3.061 0v-13.308a16.833 16.833 0 0 1 33.666 0v13.308a1.53 1.53 0 0 1 -1.53 1.531z" fill="#eeefee"/></g></svg>