<svg height="512" viewBox="0 0 128 128" width="512" xmlns="http://www.w3.org/2000/svg"><g id="Circle_Grid" data-name="Circle Grid"><circle cx="64" cy="64" fill="#3b5059" r="64"/></g><g id="icon"><path d="m80.467 65.537 12.684 33.694-12.942-5.685-5.037 12.454-12.685-33.694z" fill="#ef5261"/><path d="m47.533 65.537-12.684 33.694 12.942-5.685 5.037 12.454 12.685-33.694z" fill="#ef5261"/><circle cx="64" cy="50.437" fill="#f6c863" r="28.437"/><path d="m64 73.666a23.229 23.229 0 1 1 23.229-23.23 23.255 23.255 0 0 1 -23.229 23.23z" fill="#eab54e"/><path d="m64 37.778 4.367 7.984 8.944 1.686-6.245 6.621 1.161 9.027-8.227-3.893-8.226 3.893 1.16-9.027-6.244-6.621 8.943-1.686z" fill="#f6c863"/></g></svg>